<svg width="18" height="35" viewBox="0 0 18 35" fill="none" xmlns="http://www.w3.org/2000/svg">
<path d="M15.3935 29.2845L8.72057 29.9032L1.7677 29.2845L4.72856 26.2648L6.1427 25.6755L7.38007 26.1911L8.57326 26.2058L9.78117 26.1911L10.4146 25.5724L12.4327 26.2648L15.3935 29.2845Z" fill="url(#paint0_linear_1_287)"/>
<path d="M6.48151 26.0585C6.05432 27.0897 5.08209 29.3287 4.94951 29.5644L2.91669 29.3877C3.0198 29.2551 4.53706 27.0897 5.37671 26.0438C5.74497 26.0438 6.11324 26.0585 6.48151 26.0585Z" fill="url(#paint1_linear_1_287)"/>
<path d="M10.8712 25.7344L12.4327 26.2647L15.3935 29.2845L12.2706 29.5791C12.2559 28.2534 11.6667 26.8834 10.8712 25.7344Z" fill="black"/>
<path d="M15.3935 29.2845V29.2993L14.3919 31.3026L9.78117 31.5236H7.38007L2.78412 31.3026L1.7677 29.2993V29.2845H15.3935Z" fill="url(#paint2_linear_1_287)"/>
<path d="M15.3935 29.2993L14.3918 31.3026L9.78115 31.5236H7.38005H7.26221C7.41933 31.5039 7.57646 31.4794 7.73359 31.4499C8.42593 31.3616 9.11827 31.229 9.76642 30.9786C10.6944 30.625 11.5783 30.0358 12.2706 29.2845H15.3935V29.2993Z" fill="black"/>
<path d="M15.0106 32.2159L2.16543 32.2307C2.1507 32.1717 2.1507 32.0244 2.1507 31.9655C2.1507 31.5825 2.44531 31.2732 2.81357 31.2732H14.3477C14.7159 31.2732 15.0253 31.5825 15.0253 31.9655C15.0253 32.0244 15.0253 32.157 15.0106 32.2159Z" fill="url(#paint3_linear_1_287)"/>
<g style="mix-blend-mode:multiply" opacity="0.5">
<path d="M15.0253 31.9655C15.0253 32.0244 15.0253 32.157 15.0106 32.2159L2.16543 32.2307C2.1507 32.1717 2.1507 32.0244 2.1507 31.9655C2.1507 31.9361 2.1507 31.9017 2.1507 31.8624H15.0106C15.0204 31.9017 15.0253 31.9361 15.0253 31.9655Z" fill="#221F1F"/>
</g>
<path d="M17.1612 35H0C0 33.4238 0.972226 32.1423 2.19487 32.1423H14.9811C16.189 32.1423 17.1612 33.4238 17.1612 35Z" fill="url(#paint4_linear_1_287)"/>
<path d="M17.1612 35H4.55176C5.73021 34.8822 6.90866 34.617 8.01346 34.2782C9.02987 33.9541 11.1658 33.2765 12.1233 32.1423H14.9811C16.189 32.1423 17.1612 33.4238 17.1612 35Z" fill="#020202"/>
<path d="M9.54545 0.795458C9.54545 1.25211 9.14773 1.60564 8.64688 1.60564C8.14604 1.60564 7.73358 1.25211 7.73358 0.795458C7.73358 0.353539 8.14604 0 8.64688 0C9.14773 0 9.54545 0.353539 9.54545 0.795458Z" fill="url(#paint5_linear_1_287)"/>
<path d="M9.54545 0.795458C9.54545 1.25211 9.14773 1.60564 8.64688 1.60564C8.14604 1.60564 7.73358 1.25211 7.73358 0.795458C7.73358 0.353539 8.14604 0 8.64688 0C9.14773 0 9.54545 0.353539 9.54545 0.795458Z" fill="url(#paint6_linear_1_287)"/>
<path style="mix-blend-mode:screen" opacity="0.5" d="M7.73358 0.839649C7.73358 0.824918 7.73358 0.810189 7.73358 0.795458C7.73358 0.353539 8.14604 0 8.64688 0C8.74509 0 8.83838 0.00982223 8.92676 0.0294631C9.2361 0.206231 9.2803 0.854381 8.82365 1.09007C8.47012 1.26684 7.7925 1.20791 7.73358 0.839649Z" fill="url(#paint7_linear_1_287)"/>
<path d="M9.54548 0.795459C9.54548 1.25211 9.14776 1.60564 8.64692 1.60564C8.3523 1.60564 8.10188 1.48779 7.92511 1.2963C7.98403 1.35522 8.11661 1.38468 8.19026 1.39941C8.27864 1.41905 8.37194 1.42888 8.47015 1.42888C8.67637 1.39941 8.88261 1.2963 9.04464 1.16373C9.36872 0.869113 9.33926 0.265153 9.04464 0.0736542C9.04464 0.0736542 9.03973 0.0736542 9.02991 0.0736542C9.33925 0.20623 9.54548 0.471385 9.54548 0.795459Z" fill="black"/>
<path d="M13.1103 3.82994C13.1103 5.14097 11.1069 6.21631 8.6469 6.21631C6.18688 6.21631 4.19824 5.14097 4.19824 3.82994C4.19824 2.51892 6.18688 1.45831 8.6469 1.45831C11.1069 1.45831 13.1103 2.51892 13.1103 3.82994Z" fill="url(#paint8_linear_1_287)"/>
<path d="M13.1103 3.82994C13.1103 5.14097 11.1069 6.21631 8.6469 6.21631C6.18688 6.21631 4.19824 5.14097 4.19824 3.82994C4.19824 2.51892 6.18688 1.45831 8.6469 1.45831C11.1069 1.45831 13.1103 2.51892 13.1103 3.82994Z" fill="url(#paint9_linear_1_287)"/>
<g style="mix-blend-mode:screen">
<path style="mix-blend-mode:screen" opacity="0.5" d="M8.82364 6.08373C8.7058 6.09355 8.58304 6.09847 8.45538 6.09847C6.61405 6.09847 4.64014 5.28828 4.64014 4.00671C4.64014 2.72515 6.61405 1.45831 8.45538 1.45831C8.58304 1.45831 8.7058 1.46322 8.82364 1.47304C7.14435 1.60562 5.84805 2.57784 5.84805 3.78575C5.84805 4.97894 7.14435 5.96589 8.82364 6.08373Z" fill="url(#paint10_linear_1_287)"/>
</g>
<g style="mix-blend-mode:multiply" opacity="0.5">
<path d="M13.1103 3.82994C13.1103 5.14097 11.1069 6.21631 8.6469 6.21631C7.96929 6.21631 7.32114 6.12792 6.74664 5.98061C6.79575 5.98061 6.84976 5.98061 6.90869 5.98061C9.3687 5.98061 11.3573 4.92001 11.3573 3.60898C11.3573 2.65149 10.3115 1.84131 8.80893 1.45831C11.1953 1.5025 13.1103 2.54838 13.1103 3.82994Z" fill="url(#paint11_linear_1_287)"/>
</g>
<path d="M13.7732 2.76937L11.4015 10.0168H5.75969L3.38806 2.76937H3.40279C3.62375 3.24075 4.09513 3.56482 4.64017 3.56482C5.34724 3.56482 5.9512 2.99033 5.99539 2.28326C6.21635 2.73991 6.68772 3.06398 7.23276 3.06398C7.93983 3.06398 8.52906 2.50421 8.58798 1.81187C8.63217 2.50421 9.23613 3.07872 9.9432 3.07872C10.4735 3.07872 10.9449 2.75464 11.1658 2.28326H11.1806C11.1953 3.00506 11.7993 3.59429 12.5358 3.59429C13.0808 3.59429 13.5669 3.25548 13.7732 2.76937Z" fill="url(#paint12_linear_1_287)"/>
<path d="M7.15911 10.0168H6.37838C6.29 9.45708 5.1852 5.58292 4.78748 4.10985C5.27359 4.12459 5.77443 3.8447 5.89227 3.3144C5.89227 3.27511 5.89718 3.24566 5.907 3.22602C5.96592 3.06398 6.01012 2.88721 6.01012 2.71044C6.02976 2.62206 6.03467 2.52876 6.02485 2.43056C6.03958 2.53367 6.06905 2.63678 6.09851 2.7399C6.17216 2.94613 6.27527 3.13762 6.34892 3.32912C6.40784 3.44697 6.58462 3.78578 7.056 3.85943C7.12965 5.30304 7.12965 9.25085 7.17384 9.79588C7.16402 9.88426 7.15911 9.95792 7.15911 10.0168Z" fill="url(#paint13_linear_1_287)"/>
<path d="M13.7732 2.76937L11.4015 10.0169H6.9234C7.61574 9.86954 8.29335 9.45708 8.75 9.0299C9.67804 8.14606 10.1641 6.70246 10.5029 5.47981C10.6895 4.79238 10.8565 4.09022 11.0038 3.37333C11.0627 3.03453 11.1658 2.66626 11.1806 2.29799C11.21 3.01979 11.814 3.59429 12.5358 3.59429C13.0808 3.59429 13.5669 3.25548 13.7732 2.76937Z" fill="black"/>
<path style="mix-blend-mode:multiply" d="M5.99536 2.28326C6.21632 2.73991 6.6877 3.06398 7.23273 3.06398C7.9398 3.06398 8.52903 2.50421 8.58795 1.81187C8.63214 2.50421 9.2361 3.07872 9.94317 3.07872C10.4735 3.07872 10.9449 2.75464 11.1658 2.28326H11.1806C11.1953 3.00506 11.7992 3.59429 12.5358 3.59429C13.0808 3.59429 13.5669 3.25548 13.7731 2.76937L13.7142 2.96086C13.4491 3.44697 12.7862 4.47812 12.0055 4.24243C11.1216 3.97728 11.1511 2.41584 11.1511 2.41584C11.1511 2.41584 10.7681 3.90363 9.81059 3.85944C8.72053 3.80052 8.55849 1.98864 8.55849 1.98864C8.54376 2.50422 8.44064 3.75633 7.38004 3.8889C6.15739 4.03621 5.99536 2.28326 5.99536 2.28326Z" fill="url(#paint14_linear_1_287)"/>
<path style="mix-blend-mode:multiply" d="M3.38806 2.76936H3.40279C3.62375 3.24074 4.09513 3.56482 4.64017 3.56482C5.34724 3.56482 5.9512 2.99032 5.99539 2.28325C6.08377 3.15236 5.77442 4.10985 4.8022 4.13931C4.10986 4.16877 3.60902 3.2702 3.38806 2.76936Z" fill="url(#paint15_linear_1_287)"/>
<path d="M11.4015 10.6208V10.6355H5.7597C6.02486 10.5324 6.02486 10.1347 5.78917 10.0168H11.4015C11.1511 10.12 11.1511 10.5177 11.4015 10.6208Z" fill="url(#paint16_linear_1_287)"/>
<path d="M13.6553 25.1452L9.10354 25.5282H8.19024L3.52063 25.1452C8.23444 15.6145 5.70076 12.3295 5.70076 12.3295H8.57324H11.4752C11.4752 12.3295 8.9415 15.6145 13.6553 25.1452Z" fill="url(#paint17_linear_1_287)"/>
<path d="M6.43727 19.4003C7.14435 16.7782 7.01177 12.8157 6.21632 12.3296L6.90866 12.3001C7.08543 12.3001 7.85142 14.9663 7.58626 18.428C7.49788 19.6065 6.79081 24.4971 6.46674 25.3367L4.25714 25.1599C5.34721 23.3628 5.89224 21.4036 6.43727 19.4003Z" fill="url(#paint18_linear_1_287)"/>
<path d="M11.4752 12.3295C11.4752 12.3295 8.94152 15.6145 13.6553 25.1452L11.1069 25.3514C11.3132 23.6869 10.4588 22.0518 9.88427 20.5345C9.25086 18.8258 8.8384 16.9844 8.95624 15.1578C9.00044 14.4066 9.22139 13.6406 9.58966 12.963C9.72224 12.742 9.86954 12.5358 10.0316 12.3295H11.4752Z" fill="black"/>
<path d="M11.3573 11.4752H5.80386C5.56817 11.4752 5.36194 11.2837 5.36194 11.048C5.36194 10.7976 5.56817 10.6061 5.80386 10.6061H11.3573C11.593 10.6061 11.7992 10.7976 11.7992 11.048C11.7992 11.2837 11.593 11.4752 11.3573 11.4752Z" fill="url(#paint19_linear_1_287)"/>
<path style="mix-blend-mode:screen" opacity="0.5" d="M6.92343 11.4752H6.05432C5.98558 11.3966 5.92666 11.3082 5.87756 11.21C5.75971 10.9007 5.9512 10.7092 6.20163 10.6061H7.04127C6.83504 10.7976 6.70247 11.048 6.83505 11.3426C6.86451 11.3868 6.87924 11.431 6.92343 11.4752Z" fill="url(#paint20_linear_1_287)"/>
<path style="mix-blend-mode:multiply" opacity="0.7" d="M11.7992 11.0332C11.7992 11.0431 11.7992 11.048 11.7992 11.048C11.7992 11.2837 11.593 11.4752 11.3573 11.4752H5.80386C5.56817 11.4752 5.36194 11.2837 5.36194 11.048C5.36194 11.048 5.36685 11.0431 5.37667 11.0332H11.7992Z" fill="url(#paint21_linear_1_287)"/>
<path d="M11.4015 12.3296H5.75967C5.50925 12.3296 5.31775 12.1381 5.31775 11.9024C5.31775 11.6519 5.50925 11.4604 5.75967 11.4604H11.4015C11.6519 11.4604 11.8434 11.6519 11.8434 11.9024C11.8434 12.1381 11.6519 12.3296 11.4015 12.3296Z" fill="url(#paint22_linear_1_287)"/>
<path style="mix-blend-mode:screen" opacity="0.5" d="M6.87919 12.3296H5.96589C5.68601 12.0939 5.61236 11.6667 6.01008 11.4604H6.90866C6.835 11.5194 6.76134 11.593 6.71715 11.6814C6.65823 11.814 6.65823 11.9613 6.70243 12.0791C6.73189 12.197 6.79081 12.2706 6.87919 12.3296Z" fill="url(#paint23_linear_1_287)"/>
<path style="mix-blend-mode:multiply" opacity="0.7" d="M11.8434 11.9466C11.814 12.1675 11.6372 12.3296 11.4015 12.3296H5.75967C5.52398 12.3296 5.33248 12.1528 5.31775 11.9318C5.37667 11.9416 5.43069 11.9466 5.47979 11.9466H11.8434Z" fill="url(#paint24_linear_1_287)"/>
<path d="M12.4474 26.2647H4.72854L3.52063 25.1452H13.6406L12.4474 26.2647Z" fill="url(#paint25_linear_1_287)"/>
<path d="M13.6405 25.1452L12.4474 26.2647H8.85309C9.51597 26.0143 10.5766 25.6755 11.1216 25.1452H13.6405Z" fill="black"/>
<g style="mix-blend-mode:screen" opacity="0.5">
<path d="M5.08207 32.0981C4.40446 32.7757 4.25716 34.0572 4.25716 34.9558H1.14899C1.31102 33.5269 2.40109 32.3043 3.21128 32.0981H5.08207Z" fill="url(#paint26_linear_1_287)"/>
</g>
<defs>
<linearGradient id="paint0_linear_1_287" x1="386.017" y1="195.773" x2="1079.57" y2="195.773" gradientUnits="userSpaceOnUse">
<stop stop-color="#434546"/>
<stop offset="0.0001" stop-color="#2D2B2C"/>
<stop offset="0.9" stop-color="#201E1E"/>
</linearGradient>
<linearGradient id="paint1_linear_1_287" x1="4.6991" y1="26.0438" x2="4.6991" y2="29.5644" gradientUnits="userSpaceOnUse">
<stop stop-color="white" stop-opacity="0"/>
<stop offset="1" stop-color="white" stop-opacity="0.5"/>
</linearGradient>
<linearGradient id="paint2_linear_1_287" x1="8.58062" y1="29.2845" x2="8.58062" y2="31.5236" gradientUnits="userSpaceOnUse">
<stop stop-color="#252727"/>
<stop offset="1" stop-color="#434546"/>
</linearGradient>
<linearGradient id="paint3_linear_1_287" x1="8.58799" y1="31.2732" x2="8.58799" y2="32.2307" gradientUnits="userSpaceOnUse">
<stop stop-color="#252727"/>
<stop offset="1" stop-color="#434546"/>
</linearGradient>
<linearGradient id="paint4_linear_1_287" x1="483.946" y1="144.451" x2="1357.45" y2="144.451" gradientUnits="userSpaceOnUse">
<stop stop-color="#434546"/>
<stop offset="0.0001" stop-color="#2D2B2C"/>
<stop offset="0.9" stop-color="#201E1E"/>
</linearGradient>
<linearGradient id="paint5_linear_1_287" x1="1112.43" y1="887.921" x2="1128.58" y2="910.703" gradientUnits="userSpaceOnUse">
<stop stop-color="#A3A5A8"/>
<stop offset="0.4" stop-color="#434546"/>
<stop offset="0.9" stop-color="#201E1E"/>
</linearGradient>
<linearGradient id="paint6_linear_1_287" x1="58.8282" y1="63.1018" x2="151.052" y2="63.1018" gradientUnits="userSpaceOnUse">
<stop stop-color="#434546"/>
<stop offset="0.0001" stop-color="#2D2B2C"/>
<stop offset="0.9" stop-color="#201E1E"/>
</linearGradient>
<linearGradient id="paint7_linear_1_287" x1="876.604" y1="657.239" x2="889.251" y2="676.393" gradientUnits="userSpaceOnUse">
<stop stop-color="#FEFEFE"/>
<stop offset="0.9" stop-color="#434546"/>
</linearGradient>
<linearGradient id="paint8_linear_1_287" x1="5514.51" y1="2696.39" x2="5514.51" y2="2797.26" gradientUnits="userSpaceOnUse">
<stop stop-color="#A3A5A8"/>
<stop offset="0.4" stop-color="#434546"/>
<stop offset="0.9" stop-color="#201E1E"/>
</linearGradient>
<linearGradient id="paint9_linear_1_287" x1="8.65426" y1="1.45831" x2="8.65426" y2="6.21631" gradientUnits="userSpaceOnUse">
<stop stop-color="#252727"/>
<stop offset="1" stop-color="#434546"/>
</linearGradient>
<linearGradient id="paint10_linear_1_287" x1="1847.89" y1="3455.12" x2="1847.89" y2="2924.29" gradientUnits="userSpaceOnUse">
<stop stop-color="#FEFEFE"/>
<stop offset="0.9" stop-color="#434546"/>
</linearGradient>
<linearGradient id="paint11_linear_1_287" x1="4018.39" y1="2696.39" x2="4018.39" y2="2797.26" gradientUnits="userSpaceOnUse">
<stop stop-color="#A3A5A8"/>
<stop offset="0.4" stop-color="#434546"/>
<stop offset="0.9" stop-color="#201E1E"/>
</linearGradient>
<linearGradient id="paint12_linear_1_287" x1="296.248" y1="324.267" x2="824.85" y2="324.267" gradientUnits="userSpaceOnUse">
<stop stop-color="#434546"/>
<stop offset="0.0001" stop-color="#2D2B2C"/>
<stop offset="0.9" stop-color="#201E1E"/>
</linearGradient>
<linearGradient id="paint13_linear_1_287" x1="5.98066" y1="2.43056" x2="5.98066" y2="10.0168" gradientUnits="userSpaceOnUse">
<stop stop-color="white" stop-opacity="0"/>
<stop offset="1" stop-color="white" stop-opacity="0.5"/>
</linearGradient>
<linearGradient id="paint14_linear_1_287" x1="4470.44" y1="1410.11" x2="5018.77" y2="1410.11" gradientUnits="userSpaceOnUse">
<stop stop-color="#A3A5A8"/>
<stop offset="0.4" stop-color="#434546"/>
<stop offset="0.9" stop-color="#201E1E"/>
</linearGradient>
<linearGradient id="paint15_linear_1_287" x1="1508.25" y1="1068.99" x2="1693.34" y2="1068.99" gradientUnits="userSpaceOnUse">
<stop stop-color="#A3A5A8"/>
<stop offset="0.4" stop-color="#434546"/>
<stop offset="0.9" stop-color="#201E1E"/>
</linearGradient>
<linearGradient id="paint16_linear_1_287" x1="8.58063" y1="10.0168" x2="8.58063" y2="10.6355" gradientUnits="userSpaceOnUse">
<stop stop-color="#252727"/>
<stop offset="1" stop-color="#434546"/>
</linearGradient>
<linearGradient id="paint17_linear_1_287" x1="289.319" y1="531.037" x2="805.174" y2="531.037" gradientUnits="userSpaceOnUse">
<stop stop-color="#434546"/>
<stop offset="0.0001" stop-color="#2D2B2C"/>
<stop offset="0.9" stop-color="#201E1E"/>
</linearGradient>
<linearGradient id="paint18_linear_1_287" x1="5.94932" y1="12.3001" x2="5.94932" y2="25.3367" gradientUnits="userSpaceOnUse">
<stop stop-color="white" stop-opacity="0"/>
<stop offset="1" stop-color="white" stop-opacity="0.5"/>
</linearGradient>
<linearGradient id="paint19_linear_1_287" x1="186.893" y1="44.7622" x2="514.551" y2="44.7622" gradientUnits="userSpaceOnUse">
<stop stop-color="#434546"/>
<stop offset="0.0001" stop-color="#2D2B2C"/>
<stop offset="0.9" stop-color="#201E1E"/>
</linearGradient>
<linearGradient id="paint20_linear_1_287" x1="534.278" y1="657.486" x2="534.278" y2="558.059" gradientUnits="userSpaceOnUse">
<stop stop-color="#FEFEFE"/>
<stop offset="0.9" stop-color="#434546"/>
</linearGradient>
<linearGradient id="paint21_linear_1_287" x1="3786.62" y1="291.166" x2="4067.93" y2="291.166" gradientUnits="userSpaceOnUse">
<stop stop-color="#A3A5A8"/>
<stop offset="0.2" stop-color="#434546"/>
<stop offset="0.9" stop-color="#201E1E"/>
</linearGradient>
<linearGradient id="paint22_linear_1_287" x1="189.342" y1="45.6165" x2="521.499" y2="45.6165" gradientUnits="userSpaceOnUse">
<stop stop-color="#434546"/>
<stop offset="0.0001" stop-color="#2D2B2C"/>
<stop offset="0.9" stop-color="#201E1E"/>
</linearGradient>
<linearGradient id="paint23_linear_1_287" x1="523.392" y1="658.34" x2="523.392" y2="558.914" gradientUnits="userSpaceOnUse">
<stop stop-color="#FEFEFE"/>
<stop offset="0.9" stop-color="#434546"/>
</linearGradient>
<linearGradient id="paint24_linear_1_287" x1="3836.55" y1="266.479" x2="4125.63" y2="266.479" gradientUnits="userSpaceOnUse">
<stop stop-color="#A3A5A8"/>
<stop offset="0.2" stop-color="#434546"/>
<stop offset="0.9" stop-color="#201E1E"/>
</linearGradient>
<linearGradient id="paint25_linear_1_287" x1="8.5806" y1="25.1452" x2="8.5806" y2="26.2647" gradientUnits="userSpaceOnUse">
<stop stop-color="#252727"/>
<stop offset="1" stop-color="#434546"/>
</linearGradient>
<linearGradient id="paint26_linear_1_287" x1="3.11553" y1="32.0981" x2="3.11553" y2="34.9558" gradientUnits="userSpaceOnUse">
<stop stop-color="white" stop-opacity="0"/>
<stop offset="1" stop-color="white" stop-opacity="0.5"/>
</linearGradient>
</defs>
</svg>
