<svg version="1.1" id="Layer_1" xmlns="http://www.w3.org/2000/svg" xmlns:xlink="http://www.w3.org/1999/xlink" x="0px" y="0px"
	 width="100%" viewBox="0 0 382 528" enable-background="new 0 0 382 528" xml:space="preserve">
<path fill="none" opacity="1.000000" stroke="none" 
	d="
M383.000000,212.000000 
	C383.000000,317.971039 383.000000,423.442047 383.000000,528.956543 
	C255.730606,528.956543 128.461182,528.956543 1.095883,528.956543 
	C1.095883,353.112274 1.095883,177.224503 1.095883,1.168361 
	C128.333160,1.168361 255.666550,1.168361 383.000000,1.168361 
	C383.000000,71.205513 383.000000,141.352753 383.000000,212.000000 
M241.913605,223.465805 
	C242.274536,224.307999 242.635452,225.150208 242.497208,226.558868 
	C239.626465,226.900223 236.755737,227.241577 233.291885,227.256149 
	C233.208527,233.507614 233.125153,239.759094 233.235519,246.739960 
	C233.180740,247.486481 233.125961,248.233017 232.598465,249.279083 
	C232.773071,249.863525 232.947678,250.447968 233.371674,251.829285 
	C233.558395,254.989761 233.775314,258.148804 233.926987,261.310944 
	C234.968872,283.031189 240.961105,303.192078 252.998489,321.405090 
	C254.027679,322.962311 255.751175,324.072784 257.196228,325.340576 
	C260.649811,328.370514 264.073090,331.439667 267.627625,334.347443 
	C268.992371,335.463867 270.669464,336.944092 272.223328,336.967041 
	C286.051483,337.171356 299.885101,337.169922 313.713562,336.976105 
	C315.364410,336.953003 317.491028,335.818909 318.546356,334.512512 
	C322.832062,329.207275 326.320435,323.195129 330.971100,318.262268 
	C337.948730,310.861145 339.191376,302.357849 338.050903,292.880493 
	C336.821930,282.667664 333.901031,274.098785 322.960663,269.842102 
	C314.643219,266.605988 306.927338,261.805023 299.011383,257.573792 
	C297.646179,256.844055 296.120941,255.703003 295.529510,254.370346 
	C293.797211,250.466827 292.498901,246.370728 290.606201,241.188080 
	C311.086121,237.978745 331.374908,234.799347 352.489838,231.490494 
	C352.185059,230.948822 351.769623,229.197662 350.685791,228.527405 
	C349.152588,227.579269 347.125885,227.429230 344.534607,226.728287 
	C348.401337,224.654694 351.570435,223.178848 354.506958,221.332977 
	C360.278687,217.704895 360.259277,210.493637 354.714966,206.604553 
	C349.143433,202.696396 342.738342,199.456161 338.365326,194.463364 
	C327.835815,182.441452 315.903442,172.830933 300.942139,166.991776 
	C299.433441,166.402985 297.972870,164.051147 297.667969,162.311081 
	C296.549225,155.926437 296.008118,149.443207 295.093140,143.019363 
	C294.395721,138.122894 291.502167,136.483185 287.024658,138.518982 
	C285.251556,139.325150 283.673309,140.679413 282.194794,141.995758 
	C263.629730,158.524551 246.866470,176.550659 235.070114,199.086212 
	C237.146271,200.687943 239.446472,202.093246 241.267166,203.964981 
	C243.327301,206.082794 244.957123,208.619186 246.058090,210.968658 
	C245.103531,210.971176 244.148972,210.973694 242.912537,210.337906 
	C239.975906,207.991577 236.827988,205.859695 234.164917,203.235748 
	C231.731186,200.837784 229.197830,199.909027 225.785980,199.954529 
	C212.628494,200.130035 199.462296,200.243332 186.309448,199.940338 
	C178.994598,199.771851 172.011826,199.629211 167.103516,206.348083 
	C166.656219,206.960373 165.709503,207.212173 164.987625,207.618805 
	C162.028717,209.285614 160.507172,215.698364 161.973480,220.540848 
	C163.075943,224.181763 166.122665,223.790527 168.942764,223.791168 
	C191.264481,223.796234 213.586273,223.818130 235.907776,223.750214 
	C237.850037,223.744308 239.790466,223.131195 241.913605,223.465805 
M268.382782,355.978943 
	C267.566864,355.647125 266.750916,355.315308 266.001648,354.148438 
	C270.359344,340.369568 262.091858,327.462372 248.062943,327.313934 
	C217.614838,326.991730 187.157715,326.953674 156.710754,327.327362 
	C141.201355,327.517731 132.342789,344.256500 140.251358,357.243408 
	C141.858658,359.882812 143.774078,361.056915 147.072113,361.045288 
	C184.012909,360.914825 220.954544,361.010468 257.894989,360.836761 
	C259.996674,360.826904 262.089874,359.004364 264.963593,358.026489 
	C265.998932,358.022583 267.034271,358.018646 267.960419,358.717285 
	C267.278076,359.831818 266.595703,360.946350 265.946106,362.007416 
	C267.748352,363.697723 269.280457,365.427277 271.105713,366.753296 
	C272.544373,367.798492 274.338806,369.002289 275.984192,369.015533 
	C295.289703,369.171387 314.597961,369.201996 333.902100,368.977478 
	C335.768616,368.955780 338.345337,367.469482 339.349060,365.878632 
	C346.226471,354.977966 338.680054,341.042084 325.639313,340.823029 
	C308.002075,340.526703 290.356140,340.739807 272.713989,340.764618 
	C272.117676,340.765472 271.521790,341.093628 271.960815,340.964294 
	C270.900604,346.443909 269.974213,351.231964 268.382782,355.978943 
M148.872757,324.544586 
	C148.569458,324.367889 148.266144,324.191223 147.041000,324.167358 
	C121.093018,324.173096 95.145042,324.179108 69.197060,324.184479 
	C52.062431,324.188019 43.518177,334.132111 46.136127,351.024811 
	C47.136929,357.482605 49.704647,359.748627 56.047737,359.763092 
	C82.656593,359.823730 109.265442,359.882965 136.459198,360.028687 
	C136.833176,359.606384 137.207153,359.184052 137.581131,358.761719 
	C137.212936,358.491028 136.844757,358.220337 136.018173,357.306183 
	C130.465240,343.406433 134.960754,331.873871 148.872757,324.544586 
M136.861557,363.980408 
	C137.061478,363.514343 137.261383,363.048279 137.461304,362.582214 
	C136.976318,362.714081 136.491348,362.845947 135.070938,363.053833 
	C108.259666,363.055878 81.448395,363.052490 54.637123,363.063019 
	C45.951675,363.066406 43.114197,365.964417 43.104469,374.806122 
	C43.094570,383.798706 43.092121,392.791351 43.105583,401.783905 
	C43.118401,410.347290 45.913071,413.183136 54.408939,413.187958 
	C79.388374,413.202087 104.367828,413.197021 129.347275,413.182098 
	C130.742432,413.181274 132.137482,413.023956 133.346268,412.950775 
	C132.648575,409.898590 131.550659,407.191193 131.491440,404.461243 
	C131.274750,394.474182 130.979858,384.451965 131.628540,374.502563 
	C131.861664,370.927216 134.680786,367.520477 136.861557,363.980408 
M247.755157,320.452332 
	C235.446106,300.726654 230.114059,279.081177 230.502548,255.614761 
	C230.278458,254.389267 230.054352,253.163788 229.543427,251.052094 
	C229.543427,243.474792 229.543427,235.897491 229.543427,228.335052 
	C210.881195,228.335052 193.290802,228.335052 175.097153,228.335052 
	C175.647186,261.246613 175.157135,293.832794 155.322357,323.037262 
	C187.065475,323.037262 217.538269,323.037262 248.385696,323.479858 
	C248.865311,323.271210 249.344925,323.062592 249.824539,322.853943 
	C249.289871,322.227020 248.755188,321.600128 247.755157,320.452332 
M65.078773,319.847961 
	C66.682823,320.235596 68.285782,320.955536 69.891083,320.960815 
	C92.380501,321.034637 114.906158,320.257050 137.344894,321.326050 
	C148.720520,321.867981 156.064651,319.058258 160.030243,307.970123 
	C159.953003,307.293152 159.875763,306.616180 159.339249,305.194855 
	C152.974884,271.800659 146.610535,238.406479 140.241455,204.987610 
	C122.257156,204.987610 104.809792,204.987610 87.175354,204.987610 
	C86.852287,206.192245 86.486702,207.276199 86.274284,208.389389 
	C83.130516,224.864609 80.050407,241.352066 76.867630,257.819702 
	C73.057045,277.535583 69.162872,297.235291 64.831268,317.081024 
	C64.866653,317.715698 64.902039,318.350403 65.078773,319.847961 
M207.499924,413.191254 
	C224.983078,413.190155 242.466370,413.225647 259.949341,413.169128 
	C266.523285,413.147888 269.359680,410.309052 269.418884,403.714630 
	C269.502625,394.391052 269.477814,385.065887 269.425293,375.741821 
	C269.383972,368.405823 266.809082,365.763641 259.535645,365.757294 
	C221.405746,365.723877 183.275818,365.722717 145.145935,365.757507 
	C138.113815,365.763916 135.476196,368.385864 135.403793,375.405609 
	C135.311050,384.395996 135.358521,393.388092 135.383881,402.379333 
	C135.407227,410.659760 137.889847,413.178589 146.058182,413.185516 
	C166.205414,413.202637 186.352661,413.191193 207.499924,413.191254 
M138.697556,513.501099 
	C143.438385,513.501099 148.179230,513.501099 153.256973,513.501099 
	C153.256973,509.307495 153.261932,506.157501 153.256165,503.007538 
	C153.213165,479.521942 153.178802,456.036285 153.104523,432.550781 
	C153.098129,430.527069 153.824173,427.951843 150.266647,427.971954 
	C141.985336,428.018738 133.703568,427.986877 124.784271,427.986877 
	C124.784271,438.516266 124.784271,448.602386 124.784271,458.891449 
	C121.376823,458.891449 118.612495,458.891449 115.060616,458.891449 
	C115.060616,449.764679 115.163757,440.806213 114.946594,431.855530 
	C114.914940,430.550842 113.390709,428.197723 112.495117,428.167480 
	C104.071213,427.883179 95.633820,427.998566 86.930405,427.998566 
	C86.930405,456.610107 86.930405,484.666443 86.930405,513.083557 
	C96.610435,513.083557 105.662865,513.083557 115.369354,513.083557 
	C115.369354,503.107056 115.369354,493.540009 115.369354,483.955994 
	C118.768944,483.955994 121.500244,483.955994 124.853203,483.955994 
	C124.853203,493.718292 124.853203,503.147003 124.853203,513.473083 
	C129.566635,513.473083 133.679443,513.473083 138.697556,513.501099 
M194.505463,166.632111 
	C204.608856,166.632111 214.712234,166.632111 225.227173,166.632111 
	C225.728622,139.564484 231.335068,114.228729 244.679337,90.472305 
	C216.192963,90.472305 188.555511,90.472305 160.132126,90.472305 
	C173.126877,114.419998 179.329987,139.562607 179.169739,166.632034 
	C184.256912,166.632034 188.882675,166.632034 194.505463,166.632111 
M294.751343,445.358185 
	C291.835938,463.199249 298.982239,474.676514 316.224976,479.885193 
	C319.719666,480.940857 323.301147,481.822571 326.622498,483.284576 
	C328.010559,483.895538 329.732086,485.869690 329.652527,487.119080 
	C329.566895,488.464233 327.763641,490.333832 326.323273,490.813141 
	C324.054504,491.568146 321.382446,491.841583 319.022400,491.455414 
	C311.886902,490.287842 304.819336,488.704834 297.456329,487.229858 
	C296.332611,495.564819 295.228729,503.752808 294.034302,512.612244 
	C309.147156,513.247009 323.880646,515.871094 338.550140,512.436401 
	C350.352722,509.673035 356.563477,502.618896 357.875977,491.739502 
	C359.472900,478.502502 355.350128,469.348633 344.501801,463.612671 
	C339.847076,461.151550 334.655609,459.702911 329.700897,457.812958 
	C326.915436,456.750458 324.031128,455.898407 321.365601,454.595215 
	C320.373596,454.110229 319.237427,452.544861 319.334229,451.590546 
	C319.433289,450.614136 320.859772,449.177612 321.885590,449.003143 
	C324.787964,448.509430 327.874634,448.017334 330.722778,448.501282 
	C337.718079,449.689941 344.620239,451.426544 351.748810,452.984039 
	C352.663666,445.591492 353.596191,438.056244 354.563110,430.243134 
	C339.814056,427.103638 325.296173,425.761475 310.697968,428.315674 
	C301.824127,429.868317 296.093689,435.162201 294.751343,445.358185 
M164.085129,507.326813 
	C164.179886,509.108795 164.274643,510.890778 164.401535,513.276855 
	C183.024750,513.276855 201.209457,513.276855 219.743057,513.276855 
	C219.743057,506.604675 219.555237,500.447632 219.810364,494.308990 
	C219.975189,490.342834 218.507782,489.095459 214.617340,489.224213 
	C207.022552,489.475555 199.413589,489.297974 191.966461,489.297974 
	C191.966461,486.346497 191.966461,484.258179 191.966461,481.691284 
	C198.002243,481.691284 203.746948,481.691284 209.865494,481.691284 
	C209.865494,475.244843 209.780609,469.279785 209.902832,463.318939 
	C209.960266,460.517914 208.529144,460.001984 206.171295,460.045990 
	C201.399612,460.135040 196.625122,460.072540 191.939514,460.072540 
	C191.939514,457.205139 191.939514,455.100677 191.939514,452.359253 
	C201.126419,452.359253 210.052338,452.359253 219.176437,452.359253 
	C219.176437,443.970703 219.176437,436.226776 219.176437,428.209381 
	C200.695114,428.209381 182.637436,428.209381 164.063858,428.209381 
	C164.063858,454.484436 164.063858,480.425171 164.085129,507.326813 
M251.544907,480.992493 
	C253.906052,481.771515 256.414429,482.276581 258.571472,483.435455 
	C259.805878,484.098633 261.233246,485.858246 261.181091,487.063995 
	C261.125427,488.350952 259.647705,490.282715 258.403320,490.662109 
	C255.952225,491.409393 253.149246,491.807556 250.641083,491.409576 
	C243.528854,490.280975 236.491867,488.678345 229.226624,487.222595 
	C228.088257,495.584686 226.973572,503.772766 225.778534,512.551147 
	C241.825302,513.317261 257.361816,516.077393 272.791168,511.801239 
	C279.678772,509.892365 284.931396,505.632477 287.720795,498.859314 
	C294.069824,483.442810 288.345062,468.805206 273.148529,461.984009 
	C268.776978,460.021759 264.096344,458.750061 259.564362,457.142181 
	C257.538605,456.423492 255.389481,455.895142 253.566193,454.821991 
	C252.466309,454.174622 251.152863,452.558929 251.274551,451.537964 
	C251.398758,450.496063 253.055374,449.045227 254.228516,448.838837 
	C256.959015,448.358459 259.886139,448.040497 262.583344,448.513428 
	C269.377625,449.704742 276.088806,451.369751 283.315033,452.950256 
	C284.298645,445.513519 285.305695,437.899567 286.302002,430.366669 
	C273.103455,427.045105 255.344803,426.129883 243.546402,428.031799 
	C233.882248,429.589661 228.487732,434.767700 226.537735,444.357880 
	C223.026520,461.626343 230.337479,474.239868 246.980606,479.622803 
	C248.242188,480.030853 249.510010,480.419586 251.544907,480.992493 
M87.741508,143.796951 
	C87.365921,142.621735 86.703308,141.457321 86.658661,140.269669 
	C86.153366,126.831322 86.178741,126.830444 72.315231,127.525703 
	C72.149055,127.534042 71.915268,127.458000 71.825821,127.541771 
	C70.604111,128.685928 68.373688,129.833038 68.352684,131.014313 
	C68.107491,144.799622 68.195633,158.590866 68.195633,172.800842 
	C70.367760,173.054688 72.297806,173.473465 74.228539,173.476669 
	C100.540085,173.520508 126.851730,173.502167 153.163345,173.513809 
	C156.131439,173.515121 158.993988,173.587357 158.978546,169.336716 
	C158.931992,156.514130 159.030533,143.690323 158.847061,130.870209 
	C158.831116,129.756973 157.215027,127.779999 156.243088,127.716270 
	C151.302124,127.392342 146.328476,127.566933 140.856461,127.566933 
	C140.856461,133.221970 140.856461,138.305588 140.856461,143.557648 
	C134.611343,143.557648 128.891098,143.557648 122.822594,143.557648 
	C122.822594,139.280838 123.050430,135.284622 122.695717,131.340790 
	C122.575890,130.008606 121.058151,127.798462 120.045837,127.720421 
	C115.125793,127.341103 110.160469,127.549057 104.647827,127.549057 
	C104.647827,133.275375 104.647827,138.361435 104.647827,143.858185 
	C98.952141,143.858185 93.829193,143.858185 87.741508,143.796951 
M55.645161,482.486115 
	C55.721497,474.377045 55.236671,466.210358 56.061943,458.178223 
	C56.660213,452.355347 59.629822,450.757874 65.469688,451.035645 
	C69.240097,451.215057 73.003082,451.550568 77.022774,451.833954 
	C77.997238,444.164459 78.911652,436.967499 79.876038,429.377289 
	C75.746384,428.634277 72.041954,427.593506 68.286362,427.353455 
	C45.829483,425.918243 30.771370,433.056427 26.475965,455.400238 
	C24.155327,467.471680 24.458914,479.582794 27.677673,491.511841 
	C29.904041,499.763000 34.331318,506.532349 42.430763,509.920898 
	C54.536980,514.985718 67.042274,513.966125 79.908943,511.927460 
	C78.887436,504.226654 77.938507,497.072937 77.018135,490.134552 
	C76.097397,489.916199 75.780861,489.767059 75.470535,489.779053 
	C72.309303,489.900848 69.146683,490.008759 65.989090,490.197998 
	C59.378639,490.594086 58.152687,489.780518 55.645161,482.486115 
M330.426392,413.194946 
	C331.259186,413.194916 332.092010,413.195801 332.924805,413.194763 
	C341.989441,413.183441 343.745331,411.449890 343.751984,402.487366 
	C343.757050,395.658325 343.780548,388.829193 343.746399,382.000305 
	C343.711182,374.964508 341.504333,372.684174 334.552216,372.658051 
	C321.727142,372.609863 308.901794,372.643555 296.076538,372.643280 
	C288.614899,372.643127 281.153259,372.643280 273.585022,372.643280 
	C271.938049,386.318420 275.099426,399.802124 271.450806,413.194977 
	C290.832031,413.194977 310.140106,413.194977 330.426392,413.194946 
M142.506042,198.294022 
	C146.264572,195.943130 149.758255,192.785065 153.847870,191.443222 
	C159.102829,189.718994 159.494476,189.671967 159.026062,181.068359 
	C158.768402,176.336197 155.632126,176.990036 152.668045,176.989288 
	C127.504066,176.982971 102.339828,176.919266 77.176254,177.019608 
	C67.453720,177.058365 68.224747,174.776398 68.196037,186.557465 
	C68.194817,187.056900 68.012459,187.737228 68.265289,188.023926 
	C69.257355,189.148880 70.348076,190.998520 71.477715,191.054489 
	C77.372841,191.346664 81.061928,195.127899 85.059525,198.654404 
	C86.401222,199.837967 88.318047,201.057724 89.985550,201.076813 
	C105.815102,201.258209 121.648224,201.246506 137.478195,201.083923 
	C138.996368,201.068344 140.500198,199.655792 142.506042,198.294022 
M213.474991,171.057877 
	C204.987015,171.057877 196.491135,171.280045 188.013840,170.979172 
	C182.435654,170.781204 177.425949,170.817017 175.214600,177.276566 
	C174.904892,178.181229 173.588867,178.791016 172.662811,179.426819 
	C167.631165,182.881424 170.104401,187.996902 170.268478,192.272232 
	C170.409210,195.939056 174.240326,195.519287 177.050171,195.521759 
	C192.861084,195.535675 208.672012,195.527740 224.482925,195.528122 
	C234.926910,195.528381 236.041702,194.395798 234.841949,184.077042 
	C234.660034,182.512589 233.327866,180.985657 232.268845,179.646072 
	C231.176956,178.264893 229.314148,177.353760 228.586899,175.850723 
	C226.653915,171.855774 223.773529,170.333771 219.447418,171.016373 
	C217.823547,171.272583 216.125366,171.057892 213.474991,171.057877 
M247.614716,83.706276 
	C247.722168,80.889702 247.719971,78.063629 247.962845,75.258781 
	C248.323792,71.090431 246.483505,69.782829 242.407776,69.802124 
	C215.616364,69.928940 188.823837,69.916771 162.032272,69.807426 
	C158.209229,69.791832 156.369095,70.996689 156.747116,74.971474 
	C156.888275,76.455742 156.942139,77.988441 156.739044,79.458046 
	C156.048477,84.455193 158.455719,85.757195 163.072205,85.733681 
	C189.364304,85.599770 215.657486,85.693024 241.950058,85.617455 
	C243.676102,85.612495 245.399933,84.846802 247.614716,83.706276 
M192.532333,40.102375 
	C194.058243,43.361603 195.584152,46.620827 197.130646,49.924019 
	C200.672012,49.924019 204.284515,49.924019 207.164551,49.924019 
	C209.514999,45.734604 211.169006,41.666969 213.798737,38.379913 
	C217.157791,34.181210 218.478836,29.751501 218.116623,24.525955 
	C217.586746,16.881289 211.324692,10.543584 203.567123,10.012866 
	C195.672424,9.472767 188.557327,14.715987 186.963608,22.168688 
	C185.524643,28.897739 187.272781,34.650234 192.532333,40.102375 
M229.444519,65.172707 
	C232.813049,65.172707 236.181564,65.172707 240.350159,65.172707 
	C222.244690,50.173668 174.819748,53.206619 165.422974,65.172722 
	C186.539734,65.172722 207.500198,65.172722 229.444519,65.172707 
z"/>
<path fill="#ffffff" opacity="1.000000" stroke="none" 
	d="
M246.774048,210.973572 
	C244.957123,208.619186 243.327301,206.082794 241.267166,203.964981 
	C239.446472,202.093246 237.146271,200.687943 235.070114,199.086212 
	C246.866470,176.550659 263.629730,158.524551 282.194794,141.995758 
	C283.673309,140.679413 285.251556,139.325150 287.024658,138.518982 
	C291.502167,136.483185 294.395721,138.122894 295.093140,143.019363 
	C296.008118,149.443207 296.549225,155.926437 297.667969,162.311081 
	C297.972870,164.051147 299.433441,166.402985 300.942139,166.991776 
	C315.903442,172.830933 327.835815,182.441452 338.365326,194.463364 
	C342.738342,199.456161 349.143433,202.696396 354.714966,206.604553 
	C360.259277,210.493637 360.278687,217.704895 354.506958,221.332977 
	C351.570435,223.178848 348.401337,224.654694 344.534607,226.728287 
	C347.125885,227.429230 349.152588,227.579269 350.685791,228.527405 
	C351.769623,229.197662 352.185059,230.948822 352.489838,231.490494 
	C331.374908,234.799347 311.086121,237.978745 290.606201,241.188080 
	C292.498901,246.370728 293.797211,250.466827 295.529510,254.370346 
	C296.120941,255.703003 297.646179,256.844055 299.011383,257.573792 
	C306.927338,261.805023 314.643219,266.605988 322.960663,269.842102 
	C333.901031,274.098785 336.821930,282.667664 338.050903,292.880493 
	C339.191376,302.357849 337.948730,310.861145 330.971100,318.262268 
	C326.320435,323.195129 322.832062,329.207275 318.546356,334.512512 
	C317.491028,335.818909 315.364410,336.953003 313.713562,336.976105 
	C299.885101,337.169922 286.051483,337.171356 272.223328,336.967041 
	C270.669464,336.944092 268.992371,335.463867 267.627625,334.347443 
	C264.073090,331.439667 260.649811,328.370514 257.196228,325.340576 
	C255.751175,324.072784 254.027679,322.962311 252.998489,321.405090 
	C240.961105,303.192078 234.968872,283.031189 233.926987,261.310944 
	C233.775314,258.148804 233.558395,254.989761 233.384735,251.253845 
	C233.288940,250.112122 233.180069,249.545837 233.071182,248.979538 
	C233.125961,248.233017 233.180740,247.486481 233.265167,245.990845 
	C233.491547,239.355469 233.688278,233.469193 233.884995,227.582932 
	C236.755737,227.241577 239.626465,226.900223 243.055511,226.249481 
	C244.086090,225.297836 244.558350,224.655563 245.330292,223.815765 
	C245.955673,222.722595 246.281387,221.826920 246.772186,220.571350 
	C246.882874,217.132156 246.828461,214.052856 246.774048,210.973572 
z"/>
<path fill="#ffffff" opacity="1.000000" stroke="none" 
	d="
M65.304901,316.942017 
	C69.162872,297.235291 73.057045,277.535583 76.867630,257.819702 
	C80.050407,241.352066 83.130516,224.864609 86.274284,208.389389 
	C86.486702,207.276199 86.852287,206.192245 87.175354,204.987610 
	C104.809792,204.987610 122.257156,204.987610 140.241455,204.987610 
	C146.610535,238.406479 152.974884,271.800659 159.494446,305.914703 
	C159.621780,307.107758 159.593903,307.580933 159.566040,308.054138 
	C156.064651,319.058258 148.720520,321.867981 137.344894,321.326050 
	C114.906158,320.257050 92.380501,321.034637 69.891083,320.960815 
	C68.285782,320.955536 66.682823,320.235596 65.154312,319.187622 
	C65.254868,317.998840 65.279884,317.470428 65.304901,316.942017 
z"/>
<path fill="#ffffff" opacity="1.000000" stroke="none" 
	d="
M206.999908,413.191254 
	C186.352661,413.191193 166.205414,413.202637 146.058182,413.185516 
	C137.889847,413.178589 135.407227,410.659760 135.383881,402.379333 
	C135.358521,393.388092 135.311050,384.395996 135.403793,375.405609 
	C135.476196,368.385864 138.113815,365.763916 145.145935,365.757507 
	C183.275818,365.722717 221.405746,365.723877 259.535645,365.757294 
	C266.809082,365.763641 269.383972,368.405823 269.425293,375.741821 
	C269.477814,385.065887 269.502625,394.391052 269.418884,403.714630 
	C269.359680,410.309052 266.523285,413.147888 259.949341,413.169128 
	C242.466370,413.225647 224.983078,413.190155 206.999908,413.191254 
z"/>
<path fill="#ffffff" opacity="1.000000" stroke="none" 
	d="
M230.018967,255.994690 
	C230.114059,279.081177 235.446106,300.726654 248.020081,321.085815 
	C248.193680,322.158630 248.102386,322.597931 248.011078,323.037262 
	C217.538269,323.037262 187.065475,323.037262 155.322357,323.037262 
	C175.157135,293.832794 175.647186,261.246613 175.097153,228.335052 
	C193.290802,228.335052 210.881195,228.335052 229.543427,228.335052 
	C229.543427,235.897491 229.543427,243.474792 229.553680,251.818375 
	C229.715607,253.721329 229.867279,254.858017 230.018967,255.994690 
z"/>
<path fill="#ffffff" opacity="1.000000" stroke="none" 
	d="
M138.244904,513.487061 
	C133.679443,513.473083 129.566635,513.473083 124.853203,513.473083 
	C124.853203,503.147003 124.853203,493.718292 124.853203,483.955994 
	C121.500244,483.955994 118.768944,483.955994 115.369354,483.955994 
	C115.369354,493.540009 115.369354,503.107056 115.369354,513.083557 
	C105.662865,513.083557 96.610435,513.083557 86.930405,513.083557 
	C86.930405,484.666443 86.930405,456.610107 86.930405,427.998566 
	C95.633820,427.998566 104.071213,427.883179 112.495117,428.167480 
	C113.390709,428.197723 114.914940,430.550842 114.946594,431.855530 
	C115.163757,440.806213 115.060616,449.764679 115.060616,458.891449 
	C118.612495,458.891449 121.376823,458.891449 124.784271,458.891449 
	C124.784271,448.602386 124.784271,438.516266 124.784271,427.986877 
	C133.703568,427.986877 141.985336,428.018738 150.266647,427.971954 
	C153.824173,427.951843 153.098129,430.527069 153.104523,432.550781 
	C153.178802,456.036285 153.213165,479.521942 153.256165,503.007538 
	C153.261932,506.157501 153.256973,509.307495 153.256973,513.501099 
	C148.179230,513.501099 143.438385,513.501099 138.244904,513.487061 
z"/>
<path fill="#ffffff" opacity="1.000000" stroke="none" 
	d="
M194.006958,166.632080 
	C188.882675,166.632034 184.256912,166.632034 179.169739,166.632034 
	C179.329987,139.562607 173.126877,114.419998 160.132126,90.472305 
	C188.555511,90.472305 216.192963,90.472305 244.679337,90.472305 
	C231.335068,114.228729 225.728622,139.564484 225.227173,166.632111 
	C214.712234,166.632111 204.608856,166.632111 194.006958,166.632080 
z"/>
<path fill="#ffffff" opacity="1.000000" stroke="none" 
	d="
M136.319717,364.036774 
	C134.680786,367.520477 131.861664,370.927216 131.628540,374.502563 
	C130.979858,384.451965 131.274750,394.474182 131.491440,404.461243 
	C131.550659,407.191193 132.648575,409.898590 133.346268,412.950775 
	C132.137482,413.023956 130.742432,413.181274 129.347275,413.182098 
	C104.367828,413.197021 79.388374,413.202087 54.408939,413.187958 
	C45.913071,413.183136 43.118401,410.347290 43.105583,401.783905 
	C43.092121,392.791351 43.094570,383.798706 43.104469,374.806122 
	C43.114197,365.964417 45.951675,363.066406 54.637123,363.063019 
	C81.448395,363.052490 108.259666,363.055878 135.690369,363.258850 
	C136.313110,363.654846 136.316406,363.845825 136.319717,364.036774 
z"/>
<path fill="#ffffff" opacity="1.000000" stroke="none" 
	d="
M264.187012,358.025452 
	C262.089874,359.004364 259.996674,360.826904 257.894989,360.836761 
	C220.954544,361.010468 184.012909,360.914825 147.072113,361.045288 
	C143.774078,361.056915 141.858658,359.882812 140.251358,357.243408 
	C132.342789,344.256500 141.201355,327.517731 156.710754,327.327362 
	C187.157715,326.953674 217.614838,326.991730 248.062943,327.313934 
	C262.091858,327.462372 270.359344,340.369568 265.727112,354.746429 
	C265.030762,356.238098 264.608887,357.131775 264.187012,358.025452 
z"/>
<path fill="#ffffff" opacity="1.000000" stroke="none" 
	d="
M294.799805,444.934875 
	C296.093689,435.162201 301.824127,429.868317 310.697968,428.315674 
	C325.296173,425.761475 339.814056,427.103638 354.563110,430.243134 
	C353.596191,438.056244 352.663666,445.591492 351.748810,452.984039 
	C344.620239,451.426544 337.718079,449.689941 330.722778,448.501282 
	C327.874634,448.017334 324.787964,448.509430 321.885590,449.003143 
	C320.859772,449.177612 319.433289,450.614136 319.334229,451.590546 
	C319.237427,452.544861 320.373596,454.110229 321.365601,454.595215 
	C324.031128,455.898407 326.915436,456.750458 329.700897,457.812958 
	C334.655609,459.702911 339.847076,461.151550 344.501801,463.612671 
	C355.350128,469.348633 359.472900,478.502502 357.875977,491.739502 
	C356.563477,502.618896 350.352722,509.673035 338.550140,512.436401 
	C323.880646,515.871094 309.147156,513.247009 294.034302,512.612244 
	C295.228729,503.752808 296.332611,495.564819 297.456329,487.229858 
	C304.819336,488.704834 311.886902,490.287842 319.022400,491.455414 
	C321.382446,491.841583 324.054504,491.568146 326.323273,490.813141 
	C327.763641,490.333832 329.566895,488.464233 329.652527,487.119080 
	C329.732086,485.869690 328.010559,483.895538 326.622498,483.284576 
	C323.301147,481.822571 319.719666,480.940857 316.224976,479.885193 
	C298.982239,474.676514 291.835938,463.199249 294.799805,444.934875 
z"/>
<path fill="#ffffff" opacity="1.000000" stroke="none" 
	d="
M164.074493,506.846344 
	C164.063858,480.425171 164.063858,454.484436 164.063858,428.209381 
	C182.637436,428.209381 200.695114,428.209381 219.176437,428.209381 
	C219.176437,436.226776 219.176437,443.970703 219.176437,452.359253 
	C210.052338,452.359253 201.126419,452.359253 191.939514,452.359253 
	C191.939514,455.100677 191.939514,457.205139 191.939514,460.072540 
	C196.625122,460.072540 201.399612,460.135040 206.171295,460.045990 
	C208.529144,460.001984 209.960266,460.517914 209.902832,463.318939 
	C209.780609,469.279785 209.865494,475.244843 209.865494,481.691284 
	C203.746948,481.691284 198.002243,481.691284 191.966461,481.691284 
	C191.966461,484.258179 191.966461,486.346497 191.966461,489.297974 
	C199.413589,489.297974 207.022552,489.475555 214.617340,489.224213 
	C218.507782,489.095459 219.975189,490.342834 219.810364,494.308990 
	C219.555237,500.447632 219.743057,506.604675 219.743057,513.276855 
	C201.209457,513.276855 183.024750,513.276855 164.401535,513.276855 
	C164.274643,510.890778 164.179886,509.108795 164.074493,506.846344 
z"/>
<path fill="#ffffff" opacity="1.000000" stroke="none" 
	d="
M251.159912,480.904907 
	C249.510010,480.419586 248.242188,480.030853 246.980606,479.622803 
	C230.337479,474.239868 223.026520,461.626343 226.537735,444.357880 
	C228.487732,434.767700 233.882248,429.589661 243.546402,428.031799 
	C255.344803,426.129883 273.103455,427.045105 286.302002,430.366669 
	C285.305695,437.899567 284.298645,445.513519 283.315033,452.950256 
	C276.088806,451.369751 269.377625,449.704742 262.583344,448.513428 
	C259.886139,448.040497 256.959015,448.358459 254.228516,448.838837 
	C253.055374,449.045227 251.398758,450.496063 251.274551,451.537964 
	C251.152863,452.558929 252.466309,454.174622 253.566193,454.821991 
	C255.389481,455.895142 257.538605,456.423492 259.564362,457.142181 
	C264.096344,458.750061 268.776978,460.021759 273.148529,461.984009 
	C288.345062,468.805206 294.069824,483.442810 287.720795,498.859314 
	C284.931396,505.632477 279.678772,509.892365 272.791168,511.801239 
	C257.361816,516.077393 241.825302,513.317261 225.778534,512.551147 
	C226.973572,503.772766 228.088257,495.584686 229.226624,487.222595 
	C236.491867,488.678345 243.528854,490.280975 250.641083,491.409576 
	C253.149246,491.807556 255.952225,491.409393 258.403320,490.662109 
	C259.647705,490.282715 261.125427,488.350952 261.181091,487.063995 
	C261.233246,485.858246 259.805878,484.098633 258.571472,483.435455 
	C256.414429,482.276581 253.906052,481.771515 251.159912,480.904907 
z"/>
<path fill="#ffffff" opacity="1.000000" stroke="none" 
	d="
M88.223877,143.827576 
	C93.829193,143.858185 98.952141,143.858185 104.647827,143.858185 
	C104.647827,138.361435 104.647827,133.275375 104.647827,127.549057 
	C110.160469,127.549057 115.125793,127.341103 120.045837,127.720421 
	C121.058151,127.798462 122.575890,130.008606 122.695717,131.340790 
	C123.050430,135.284622 122.822594,139.280838 122.822594,143.557648 
	C128.891098,143.557648 134.611343,143.557648 140.856461,143.557648 
	C140.856461,138.305588 140.856461,133.221970 140.856461,127.566933 
	C146.328476,127.566933 151.302124,127.392342 156.243088,127.716270 
	C157.215027,127.779999 158.831116,129.756973 158.847061,130.870209 
	C159.030533,143.690323 158.931992,156.514130 158.978546,169.336716 
	C158.993988,173.587357 156.131439,173.515121 153.163345,173.513809 
	C126.851730,173.502167 100.540085,173.520508 74.228539,173.476669 
	C72.297806,173.473465 70.367760,173.054688 68.195633,172.800842 
	C68.195633,158.590866 68.107491,144.799622 68.352684,131.014313 
	C68.373688,129.833038 70.604111,128.685928 71.825821,127.541771 
	C71.915268,127.458000 72.149055,127.534042 72.315231,127.525703 
	C86.178741,126.830444 86.153366,126.831322 86.658661,140.269669 
	C86.703308,141.457321 87.365921,142.621735 88.223877,143.827576 
z"/>
<path fill="#ffffff" opacity="1.000000" stroke="none" 
	d="
M55.741520,482.893555 
	C58.152687,489.780518 59.378639,490.594086 65.989090,490.197998 
	C69.146683,490.008759 72.309303,489.900848 75.470535,489.779053 
	C75.780861,489.767059 76.097397,489.916199 77.018135,490.134552 
	C77.938507,497.072937 78.887436,504.226654 79.908943,511.927460 
	C67.042274,513.966125 54.536980,514.985718 42.430763,509.920898 
	C34.331318,506.532349 29.904041,499.763000 27.677673,491.511841 
	C24.458914,479.582794 24.155327,467.471680 26.475965,455.400238 
	C30.771370,433.056427 45.829483,425.918243 68.286362,427.353455 
	C72.041954,427.593506 75.746384,428.634277 79.876038,429.377289 
	C78.911652,436.967499 77.997238,444.164459 77.022774,451.833954 
	C73.003082,451.550568 69.240097,451.215057 65.469688,451.035645 
	C59.629822,450.757874 56.660213,452.355347 56.061943,458.178223 
	C55.236671,466.210358 55.721497,474.377045 55.741520,482.893555 
z"/>
<path fill="#ffffff" opacity="1.000000" stroke="none" 
	d="
M135.874298,359.942719 
	C109.265442,359.882965 82.656593,359.823730 56.047737,359.763092 
	C49.704647,359.748627 47.136929,357.482605 46.136127,351.024811 
	C43.518177,334.132111 52.062431,324.188019 69.197060,324.184479 
	C95.145042,324.179108 121.093018,324.173096 147.709274,324.279663 
	C148.471558,324.553528 148.565552,324.715088 148.659546,324.876617 
	C134.960754,331.873871 130.465240,343.406433 136.279999,357.999146 
	C136.319305,359.108978 136.096802,359.525848 135.874298,359.942719 
z"/>
<path fill="#ffffff" opacity="1.000000" stroke="none" 
	d="
M329.937286,413.194946 
	C310.140106,413.194977 290.832031,413.194977 271.450806,413.194977 
	C275.099426,399.802124 271.938049,386.318420 273.585022,372.643280 
	C281.153259,372.643280 288.614899,372.643127 296.076538,372.643280 
	C308.901794,372.643555 321.727142,372.609863 334.552216,372.658051 
	C341.504333,372.684174 343.711182,374.964508 343.746399,382.000305 
	C343.780548,388.829193 343.757050,395.658325 343.751984,402.487366 
	C343.745331,411.449890 341.989441,413.183441 332.924805,413.194763 
	C332.092010,413.195801 331.259186,413.194916 329.937286,413.194946 
z"/>
<path fill="#ffffff" opacity="1.000000" stroke="none" 
	d="
M269.047852,356.020020 
	C269.974213,351.231964 270.900604,346.443909 271.960815,340.964294 
	C271.521790,341.093628 272.117676,340.765472 272.713989,340.764618 
	C290.356140,340.739807 308.002075,340.526703 325.639313,340.823029 
	C338.680054,341.042084 346.226471,354.977966 339.349060,365.878632 
	C338.345337,367.469482 335.768616,368.955780 333.902100,368.977478 
	C314.597961,369.201996 295.289703,369.171387 275.984192,369.015533 
	C274.338806,369.002289 272.544373,367.798492 271.105713,366.753296 
	C269.280457,365.427277 267.748352,363.697723 265.946106,362.007416 
	C266.595703,360.946350 267.278076,359.831818 268.269897,358.209839 
	C268.735535,357.141602 268.891693,356.580811 269.047852,356.020020 
z"/>
<path fill="#ffffff" opacity="1.000000" stroke="none" 
	d="
M142.258362,198.592896 
	C140.500198,199.655792 138.996368,201.068344 137.478195,201.083923 
	C121.648224,201.246506 105.815102,201.258209 89.985550,201.076813 
	C88.318047,201.057724 86.401222,199.837967 85.059525,198.654404 
	C81.061928,195.127899 77.372841,191.346664 71.477715,191.054489 
	C70.348076,190.998520 69.257355,189.148880 68.265289,188.023926 
	C68.012459,187.737228 68.194817,187.056900 68.196037,186.557465 
	C68.224747,174.776398 67.453720,177.058365 77.176254,177.019608 
	C102.339828,176.919266 127.504066,176.982971 152.668045,176.989288 
	C155.632126,176.990036 158.768402,176.336197 159.026062,181.068359 
	C159.494476,189.671967 159.102829,189.718994 153.847870,191.443222 
	C149.758255,192.785065 146.264572,195.943130 142.258362,198.592896 
z"/>
<path fill="#ffffff" opacity="1.000000" stroke="none" 
	d="
M241.731735,222.800125 
	C239.790466,223.131195 237.850037,223.744308 235.907776,223.750214 
	C213.586273,223.818130 191.264481,223.796234 168.942764,223.791168 
	C166.122665,223.790527 163.075943,224.181763 161.973480,220.540848 
	C160.507172,215.698364 162.028717,209.285614 164.987625,207.618805 
	C165.709503,207.212173 166.656219,206.960373 167.103516,206.348083 
	C172.011826,199.629211 178.994598,199.771851 186.309448,199.940338 
	C199.462296,200.243332 212.628494,200.130035 225.785980,199.954529 
	C229.197830,199.909027 231.731186,200.837784 234.164917,203.235748 
	C236.827988,205.859695 239.975906,207.991577 242.971786,211.106277 
	C243.019653,214.916092 243.008286,217.957520 242.783295,221.182159 
	C242.289612,221.846573 242.009567,222.327805 241.738037,222.837158 
	C241.746536,222.865280 241.731735,222.800125 241.731735,222.800125 
z"/>
<path fill="#ffffff" opacity="1.000000" stroke="none" 
	d="
M213.968018,171.057877 
	C216.125366,171.057892 217.823547,171.272583 219.447418,171.016373 
	C223.773529,170.333771 226.653915,171.855774 228.586899,175.850723 
	C229.314148,177.353760 231.176956,178.264893 232.268845,179.646072 
	C233.327866,180.985657 234.660034,182.512589 234.841949,184.077042 
	C236.041702,194.395798 234.926910,195.528381 224.482925,195.528122 
	C208.672012,195.527740 192.861084,195.535675 177.050171,195.521759 
	C174.240326,195.519287 170.409210,195.939056 170.268478,192.272232 
	C170.104401,187.996902 167.631165,182.881424 172.662811,179.426819 
	C173.588867,178.791016 174.904892,178.181229 175.214600,177.276566 
	C177.425949,170.817017 182.435654,170.781204 188.013840,170.979172 
	C196.491135,171.280045 204.987015,171.057877 213.968018,171.057877 
z"/>
<path fill="#ffffff" opacity="1.000000" stroke="none" 
	d="
M247.369751,84.070618 
	C245.399933,84.846802 243.676102,85.612495 241.950058,85.617455 
	C215.657486,85.693024 189.364304,85.599770 163.072205,85.733681 
	C158.455719,85.757195 156.048477,84.455193 156.739044,79.458046 
	C156.942139,77.988441 156.888275,76.455742 156.747116,74.971474 
	C156.369095,70.996689 158.209229,69.791832 162.032272,69.807426 
	C188.823837,69.916771 215.616364,69.928940 242.407776,69.802124 
	C246.483505,69.782829 248.323792,71.090431 247.962845,75.258781 
	C247.719971,78.063629 247.722168,80.889702 247.369751,84.070618 
z"/>
<path fill="#ffffff" opacity="1.000000" stroke="none" 
	d="
M192.300644,39.814049 
	C187.272781,34.650234 185.524643,28.897739 186.963608,22.168688 
	C188.557327,14.715987 195.672424,9.472767 203.567123,10.012866 
	C211.324692,10.543584 217.586746,16.881289 218.116623,24.525955 
	C218.478836,29.751501 217.157791,34.181210 213.798737,38.379913 
	C211.169006,41.666969 209.514999,45.734604 207.164551,49.924019 
	C204.284515,49.924019 200.672012,49.924019 197.130646,49.924019 
	C195.584152,46.620827 194.058243,43.361603 192.300644,39.814049 
M207.160889,30.958643 
	C210.109818,34.368797 212.814911,34.206657 213.510406,30.178919 
	C214.069138,26.943338 213.770248,23.256973 212.741043,20.137110 
	C211.760025,17.163359 208.747635,17.269846 207.817520,20.193220 
	C206.824371,23.314638 207.173340,26.863073 207.160889,30.958643 
z"/>
<path fill="#ffffff" opacity="1.000000" stroke="none" 
	d="
M228.952591,65.172714 
	C207.500198,65.172722 186.539734,65.172722 165.422974,65.172722 
	C174.819748,53.206619 222.244690,50.173668 240.350159,65.172707 
	C236.181564,65.172707 232.813049,65.172707 228.952591,65.172714 
z"/>
<path fill="#ffffff" opacity="1.000000" stroke="none" 
	d="
M242.996918,220.998962 
	C243.008286,217.957520 243.019653,214.916092 243.112732,211.425415 
	C244.148972,210.973694 245.103531,210.971176 246.416077,210.971115 
	C246.828461,214.052856 246.882874,217.132156 246.319794,220.585938 
	C244.800491,220.973282 243.898697,220.986115 242.996918,220.998962 
z"/>
<path fill="#ffffff" opacity="1.000000" stroke="none" 
	d="
M233.588440,227.419540 
	C233.688278,233.469193 233.491547,239.355469 233.168304,245.626144 
	C233.125153,239.759094 233.208527,233.507614 233.588440,227.419540 
z"/>
<path fill="#ffffff" opacity="1.000000" stroke="none" 
	d="
M268.715332,355.999481 
	C268.891693,356.580811 268.735535,357.141602 268.324493,357.858582 
	C267.034271,358.018646 265.998932,358.022583 264.575317,358.025970 
	C264.608887,357.131775 265.030762,356.238098 265.693787,355.163940 
	C266.750916,355.315308 267.566864,355.647125 268.715332,355.999481 
z"/>
<path fill="#ffffff" opacity="1.000000" stroke="none" 
	d="
M230.260757,255.804718 
	C229.867279,254.858017 229.715607,253.721329 229.697083,252.261475 
	C230.054352,253.163788 230.278458,254.389267 230.260757,255.804718 
z"/>
<path fill="#ffffff" opacity="1.000000" stroke="none" 
	d="
M248.198395,323.258545 
	C248.102386,322.597931 248.193680,322.158630 248.252747,321.346252 
	C248.755188,321.600128 249.289871,322.227020 249.824539,322.853943 
	C249.344925,323.062592 248.865311,323.271210 248.198395,323.258545 
z"/>
<path fill="#ffffff" opacity="1.000000" stroke="none" 
	d="
M245.030609,224.013275 
	C244.558350,224.655563 244.086090,225.297836 243.305099,225.966248 
	C242.635452,225.150208 242.274536,224.307999 241.822662,223.132965 
	C241.731735,222.800125 241.746536,222.865280 242.085297,222.908508 
	C243.292923,223.305603 244.161774,223.659439 245.030609,224.013275 
z"/>
<path fill="#ffffff" opacity="1.000000" stroke="none" 
	d="
M65.068085,317.011536 
	C65.279884,317.470428 65.254868,317.998840 65.083633,318.756165 
	C64.902039,318.350403 64.866653,317.715698 65.068085,317.011536 
z"/>
<path fill="#ffffff" opacity="1.000000" stroke="none" 
	d="
M136.166748,359.985718 
	C136.096802,359.525848 136.319305,359.108978 136.509186,358.320862 
	C136.844757,358.220337 137.212936,358.491028 137.581146,358.761719 
	C137.207153,359.184052 136.833176,359.606384 136.166748,359.985718 
z"/>
<path fill="#ffffff" opacity="1.000000" stroke="none" 
	d="
M136.590637,364.008606 
	C136.316406,363.845825 136.313110,363.654846 136.158081,363.220825 
	C136.491348,362.845947 136.976318,362.714081 137.461304,362.582214 
	C137.261383,363.048279 137.061478,363.514343 136.590637,364.008606 
z"/>
<path fill="#ffffff" opacity="1.000000" stroke="none" 
	d="
M159.798141,308.012146 
	C159.593903,307.580933 159.621780,307.107758 159.724091,306.286865 
	C159.875763,306.616180 159.953003,307.293152 159.798141,308.012146 
z"/>
<path fill="#ffffff" opacity="1.000000" stroke="none" 
	d="
M232.834824,249.129303 
	C233.180069,249.545837 233.288940,250.112122 233.260040,250.855408 
	C232.947678,250.447968 232.773071,249.863525 232.834824,249.129303 
z"/>
<path fill="#ffffff" opacity="1.000000" stroke="none" 
	d="
M148.766144,324.710602 
	C148.565552,324.715088 148.471558,324.553528 148.170197,324.203247 
	C148.266144,324.191223 148.569458,324.367889 148.766144,324.710602 
z"/>
<path fill="none" opacity="1.000000" stroke="none" 
	d="
M245.330292,223.815781 
	C244.161774,223.659439 243.292923,223.305603 242.076797,222.880402 
	C242.009567,222.327805 242.289612,221.846573 242.783279,221.182144 
	C243.898697,220.986115 244.800491,220.973282 246.154694,220.945862 
	C246.281387,221.826920 245.955673,222.722595 245.330292,223.815781 
z"/>
<path fill="none" opacity="1.000000" stroke="none" 
	d="
M207.048660,30.591873 
	C207.173340,26.863073 206.824371,23.314638 207.817520,20.193220 
	C208.747635,17.269846 211.760025,17.163359 212.741043,20.137110 
	C213.770248,23.256973 214.069138,26.943338 213.510406,30.178919 
	C212.814911,34.206657 210.109818,34.368797 207.048660,30.591873 
z"/>
</svg>
